<svg width="700" height="381" viewBox="0 0 700 381" fill="none" xmlns="http://www.w3.org/2000/svg">
<g clip-path="url(#clip0_23_16)">
<path d="M352.246 380.645C542.057 380.645 695.929 370.458 695.929 357.892C695.929 345.326 542.057 335.14 352.246 335.14C162.436 335.14 8.56348 345.326 8.56348 357.892C8.56348 370.458 162.436 380.645 352.246 380.645Z" fill="#F2F2F2"/>
<path d="M339.074 108.812C283.078 108.812 242.875 144.737 242.875 228.562C242.875 323.564 283.078 348.711 339.074 348.711C395.069 348.711 437.668 321.169 437.668 228.562C437.668 129.569 395.069 108.812 339.074 108.812ZM339.442 317.177C300.658 317.177 280.396 294.424 280.396 228.623C280.396 170.564 301.488 139.947 340.271 139.947C379.055 139.947 400.146 160.058 400.146 228.623C400.146 292.765 378.225 317.177 339.442 317.177Z" fill="#2F2E41"/>
<path d="M209.344 282.45H186.193V214.274C186.193 210.653 184.754 207.18 182.194 204.619C179.633 202.059 176.16 200.621 172.539 200.621H167.114C165.321 200.62 163.546 200.974 161.89 201.66C160.233 202.346 158.728 203.352 157.46 204.619C156.192 205.887 155.186 207.392 154.5 209.049C153.814 210.705 153.461 212.481 153.461 214.274V282.45H88.158C86.8146 282.45 85.494 282.103 84.3243 281.442C83.1546 280.781 82.1755 279.829 81.4821 278.678C80.7887 277.528 80.4044 276.217 80.3666 274.875C80.3288 273.532 80.6388 272.202 81.2663 271.014L150.382 140.199C151.244 138.568 151.766 136.78 151.918 134.941C152.069 133.103 151.846 131.253 151.263 129.503C150.68 127.753 149.748 126.14 148.524 124.76C147.299 123.38 145.808 122.263 144.14 121.475L140.06 119.548C136.892 118.052 133.27 117.831 129.944 118.931C126.617 120.031 123.841 122.368 122.189 125.458L37.8932 283.15C36.4578 285.835 35.7068 288.833 35.7068 291.878C35.7068 294.309 36.1857 296.716 37.1161 298.962C38.0465 301.209 39.4102 303.25 41.1294 304.969C42.8485 306.688 44.8895 308.052 47.1357 308.982C49.3819 309.913 51.7893 310.391 54.2206 310.391H153.461V353.501C153.461 355.651 153.884 357.779 154.707 359.764C155.529 361.75 156.735 363.554 158.254 365.074C159.774 366.594 161.578 367.799 163.564 368.621C165.55 369.444 167.678 369.867 169.827 369.867H169.827C171.976 369.867 174.104 369.444 176.09 368.621C178.075 367.799 179.88 366.594 181.399 365.074C182.919 363.554 184.124 361.75 184.947 359.764C185.769 357.779 186.193 355.651 186.193 353.501V310.391H209.344C213.05 310.391 216.603 308.919 219.223 306.299C221.843 303.679 223.315 300.126 223.315 296.421C223.315 292.715 221.843 289.162 219.223 286.542C216.603 283.922 213.05 282.45 209.344 282.45Z" fill="#55A6FF"/>
<path d="M638.05 282.45H614.898V214.274C614.898 210.653 613.46 207.18 610.899 204.619C608.339 202.059 604.866 200.62 601.245 200.621H595.82C594.027 200.62 592.251 200.974 590.595 201.66C588.938 202.346 587.433 203.352 586.165 204.619C584.897 205.887 583.892 207.392 583.206 209.049C582.519 210.705 582.166 212.481 582.166 214.274V282.45H516.863C515.52 282.45 514.199 282.103 513.03 281.442C511.86 280.781 510.881 279.829 510.187 278.678C509.494 277.528 509.11 276.218 509.072 274.875C509.034 273.532 509.344 272.202 509.972 271.014L579.088 140.199C579.949 138.568 580.472 136.78 580.623 134.941C580.774 133.103 580.552 131.253 579.968 129.503C579.385 127.753 578.453 126.14 577.229 124.76C576.005 123.38 574.514 122.263 572.846 121.475L568.766 119.548C565.597 118.052 561.976 117.831 558.649 118.931C555.323 120.031 552.546 122.368 550.895 125.458L466.599 283.15C465.163 285.835 464.412 288.833 464.412 291.878C464.412 296.788 466.363 301.497 469.835 304.969C473.307 308.441 478.016 310.391 482.926 310.391H582.166V353.501C582.166 357.842 583.891 362.005 586.96 365.074C590.029 368.143 594.192 369.867 598.532 369.867C602.873 369.867 607.035 368.143 610.105 365.074C613.174 362.005 614.898 357.842 614.898 353.501V310.391H638.05C641.755 310.391 645.308 308.919 647.929 306.299C650.549 303.679 652.02 300.126 652.02 296.421C652.02 292.715 650.549 289.162 647.929 286.542C645.309 283.922 641.755 282.45 638.05 282.45Z" fill="#55A6FF"/>
<path d="M215.731 274.466H192.579V206.291C192.579 204.498 192.226 202.722 191.54 201.066C190.854 199.409 189.848 197.904 188.58 196.636C187.313 195.368 185.807 194.363 184.151 193.676C182.494 192.99 180.719 192.637 178.926 192.637H173.501C169.88 192.637 166.407 194.076 163.847 196.636C161.286 199.197 159.848 202.669 159.848 206.291V274.466H94.5447C93.2013 274.466 91.8807 274.119 90.711 273.458C89.5413 272.798 88.5623 271.846 87.8688 270.695C87.1754 269.544 86.7912 268.234 86.7534 266.891C86.7156 265.548 87.0255 264.219 87.6531 263.031L156.769 132.216C157.631 130.585 158.153 128.796 158.304 126.958C158.456 125.12 158.233 123.27 157.65 121.52C157.066 119.77 156.135 118.156 154.91 116.777C153.686 115.397 152.195 114.279 150.527 113.492L146.447 111.565C143.279 110.069 139.657 109.848 136.331 110.948C133.004 112.048 130.228 114.385 128.576 117.474L44.2799 275.166C42.8445 277.852 42.0935 280.849 42.0935 283.894V283.894C42.0935 288.804 44.0441 293.513 47.5161 296.985C50.9881 300.457 55.6971 302.408 60.6073 302.408H159.848V345.518C159.848 347.667 160.271 349.795 161.094 351.781C161.916 353.767 163.122 355.571 164.641 357.09C166.161 358.61 167.965 359.816 169.951 360.638C171.936 361.461 174.064 361.884 176.214 361.884H176.214C180.554 361.884 184.717 360.16 187.786 357.09C190.855 354.021 192.579 349.859 192.579 345.518V302.408H215.731C217.566 302.408 219.383 302.047 221.078 301.345C222.773 300.642 224.313 299.613 225.61 298.316C226.907 297.019 227.936 295.479 228.638 293.784C229.341 292.089 229.702 290.272 229.702 288.437V288.437C229.702 286.603 229.341 284.786 228.639 283.091C227.936 281.396 226.907 279.856 225.61 278.558C224.313 277.261 222.773 276.232 221.078 275.53C219.383 274.828 217.566 274.466 215.731 274.466V274.466Z" stroke="#3F3D56" stroke-miterlimit="10"/>
<path d="M650.025 274.466H626.873V206.291C626.873 202.669 625.435 199.197 622.874 196.636C620.314 194.076 616.841 192.637 613.22 192.637H607.795C606.002 192.637 604.226 192.99 602.57 193.676C600.913 194.363 599.408 195.368 598.14 196.636C596.873 197.904 595.867 199.409 595.181 201.066C594.495 202.722 594.141 204.498 594.141 206.291V274.466H528.838C527.495 274.466 526.174 274.119 525.005 273.458C523.835 272.798 522.856 271.846 522.163 270.695C521.469 269.544 521.085 268.234 521.047 266.891C521.009 265.548 521.319 264.219 521.947 263.031L591.063 132.216C591.924 130.585 592.447 128.796 592.598 126.958C592.749 125.12 592.527 123.27 591.943 121.52C591.36 119.77 590.428 118.156 589.204 116.777C587.98 115.397 586.489 114.279 584.821 113.492L580.741 111.565C577.573 110.069 573.951 109.848 570.624 110.948C567.298 112.048 564.521 114.385 562.87 117.474L478.574 275.166C477.138 277.852 476.387 280.849 476.387 283.894C476.387 288.804 478.338 293.513 481.81 296.985C485.282 300.457 489.991 302.408 494.901 302.408H594.141V345.518C594.141 349.859 595.866 354.021 598.935 357.09C602.004 360.16 606.167 361.884 610.507 361.884V361.884C614.848 361.884 619.01 360.16 622.08 357.09C625.149 354.021 626.873 349.859 626.873 345.518V302.408H650.025C651.86 302.408 653.676 302.047 655.371 301.345C657.066 300.642 658.606 299.613 659.904 298.316C661.201 297.019 662.23 295.479 662.932 293.784C663.634 292.089 663.996 290.272 663.996 288.437V288.437C663.996 284.732 662.524 281.178 659.904 278.558C657.284 275.938 653.73 274.466 650.025 274.466V274.466Z" stroke="#3F3D56" stroke-miterlimit="10"/>
<path d="M351.847 101.627C295.852 101.627 255.648 137.552 255.648 221.377C255.648 316.379 295.852 341.526 351.847 341.526C407.842 341.526 450.441 313.984 450.441 221.377C450.441 122.384 407.842 101.627 351.847 101.627ZM352.215 309.992C313.431 309.992 293.169 287.239 293.169 221.439C293.169 163.379 314.261 132.762 353.045 132.762C391.828 132.762 412.92 152.873 412.92 221.439C412.92 285.58 390.999 309.992 352.215 309.992V309.992Z" stroke="#3F3D56" stroke-miterlimit="10"/>
<path d="M306.963 20.2963C311.605 20.2963 315.369 16.533 315.369 11.8908C315.369 7.24851 311.605 3.48523 306.963 3.48523C302.321 3.48523 298.558 7.24851 298.558 11.8908C298.558 16.533 302.321 20.2963 306.963 20.2963Z" fill="#2F2E41"/>
<path d="M327.464 61.0938C340.485 61.0938 351.041 47.4175 351.041 30.5469C351.041 13.6763 340.485 0 327.464 0C314.443 0 303.888 13.6763 303.888 30.5469C303.888 47.4175 314.443 61.0938 327.464 61.0938Z" fill="#2F2E41"/>
<path opacity="0.1" d="M327.464 51.8682C315.654 51.8682 305.872 40.616 304.155 25.9341C303.977 27.4652 303.888 29.0054 303.888 30.5469C303.888 47.4175 314.443 61.0938 327.464 61.0938C340.485 61.0938 351.041 47.4175 351.041 30.5469C351.041 29.0054 350.952 27.4652 350.773 25.9341C349.057 40.616 339.275 51.8682 327.464 51.8682Z" fill="black"/>
<path d="M375.44 120.005C374.933 122.085 372.75 123.752 370.333 124.916C365.249 127.364 358.979 128.094 352.898 128.339C351.346 128.433 349.79 128.405 348.243 128.253C345.245 127.963 342.433 126.671 340.261 124.584C340.106 124.483 339.979 124.344 339.892 124.181C339.806 124.018 339.761 123.835 339.764 123.65C339.767 123.465 339.817 123.283 339.909 123.123C340.001 122.962 340.132 122.827 340.29 122.731C343.528 119.175 348.931 116.994 354.373 115.424C358.5 114.233 365.698 111.149 370.199 111.565C374.559 111.968 376.079 117.378 375.44 120.005Z" fill="#3F3D56"/>
<path opacity="0.1" d="M375.44 120.005C374.933 122.085 372.75 123.752 370.333 124.916C365.249 127.364 358.979 128.094 352.898 128.339C351.346 128.433 349.79 128.405 348.243 128.253C345.245 127.963 342.433 126.671 340.261 124.584C340.106 124.483 339.979 124.344 339.892 124.181C339.806 124.018 339.761 123.835 339.764 123.65C339.767 123.465 339.817 123.283 339.909 123.123C340.001 122.962 340.132 122.827 340.29 122.731C343.528 119.175 348.931 116.994 354.373 115.424C358.5 114.233 365.698 111.149 370.199 111.565C374.559 111.968 376.079 117.378 375.44 120.005Z" fill="black"/>
<path d="M310.809 104.454C309.257 107.495 308.977 111.028 310.028 114.276C311.098 117.5 313.1 120.333 315.781 122.418C322.358 127.69 331.409 128.416 339.838 128.342C347.225 128.278 354.602 127.773 361.929 126.828C364.384 126.611 366.796 126.051 369.096 125.164C371.847 123.974 374.265 121.791 375.244 118.958C376.224 116.125 375.528 112.656 373.202 110.765C371.159 109.104 368.34 108.876 365.711 108.718L350.669 107.814C352.155 106.31 354.134 105.459 355.944 104.366C358.345 102.915 359.94 100.479 361.686 98.2837C364.376 95.0688 367.302 92.0597 370.441 89.2815C370.931 92.0898 372.708 94.3959 374.798 96.3337C376.889 98.2714 379.299 99.8314 381.473 101.676C386.736 106.145 390.526 112.21 396.062 116.336C399.87 115.335 403.43 113.558 406.518 111.116L404.367 107.219C404.187 106.818 403.908 106.469 403.556 106.207C402.947 105.832 402.162 106.025 401.454 105.919C399.564 105.636 398.739 103.454 397.997 101.693C395.961 96.8572 392.063 93.1056 388.734 89.0505C386.277 86.0572 384.097 82.8465 382.222 79.4581C381.103 77.4373 380.079 75.3333 378.562 73.5923C377.044 71.8513 374.917 70.4825 372.608 70.4776C370.567 70.4733 368.685 71.5093 366.93 72.5515C361.586 75.7258 356.444 79.2289 351.534 83.0404C348.965 85.0352 346.411 87.1428 343.397 88.366C342.128 88.881 340.791 89.2329 339.573 89.8595C337.44 90.9569 335.822 92.8138 334.08 94.462C327.866 100.341 319.358 104.15 310.809 104.454Z" fill="#3F3D56"/>
<path d="M342.262 62.6108C342.192 64.4079 341.81 66.179 341.133 67.8448C340.789 68.6757 340.278 69.4268 339.632 70.0515C338.985 70.6762 338.217 71.161 337.375 71.4756C336.179 71.796 334.925 71.8367 333.711 71.5945C332.653 71.4839 331.632 71.1364 330.726 70.5776C329.316 69.6079 328.613 67.8776 328.356 66.1842C328.1 64.4928 328.215 62.7646 328.051 61.0609C327.891 59.6849 327.629 58.3226 327.268 56.9853C327.157 56.5404 327.044 56.0976 326.934 55.6548C326.825 55.2119 326.718 54.7691 326.62 54.3263C326.53 53.9101 326.446 53.4919 326.374 53.0716C326.314 52.7169 326.261 52.3602 326.222 52.0014C326.186 50.9378 326.009 49.8837 325.695 48.8668C325.401 48.2073 325.032 47.5835 324.596 47.0073C324.41 46.7408 324.229 46.4743 324.063 46.1975C323.583 45.4783 323.36 44.6179 323.43 43.7558C323.45 43.6226 323.482 43.4915 323.526 43.3643C323.543 43.3151 323.561 43.2659 323.582 43.2187C323.766 43.1687 323.935 43.0743 324.075 42.9439C324.215 42.8135 324.321 42.6509 324.383 42.4704C324.454 42.0825 324.42 41.6829 324.287 41.3121C324.134 40.7938 323.924 40.294 323.662 39.8216C323.489 39.51 322.905 38.9483 322.901 38.5915C322.893 37.874 324.295 37.2958 324.863 37.0129C326.596 36.1449 328.529 35.753 330.464 35.8772C331.704 35.9612 333.049 36.3425 333.734 37.3819C334.349 38.3188 334.267 39.5325 334.529 40.6212C334.557 40.7794 334.624 40.9281 334.724 41.0537C334.858 41.1756 335.026 41.253 335.206 41.2751C335.509 41.3355 335.821 41.348 336.128 41.3121H336.13C336.212 41.3056 336.293 41.294 336.372 41.2772C336.851 41.1888 337.304 40.9933 337.697 40.7052C337.951 40.6376 338.207 40.5822 338.466 40.5391C338.476 40.5381 338.486 40.536 338.496 40.533C339.523 43.7742 339.657 47.2492 340.497 50.5499C340.913 52.1921 341.51 53.8137 341.594 55.503C341.6 55.5768 341.602 55.6527 341.604 55.7285C341.617 56.2718 341.574 56.8192 341.596 57.3604C341.604 57.6042 341.631 57.8468 341.678 58.0862C341.77 58.4711 341.884 58.8503 342.02 59.222L342.027 59.2404C342.066 59.3593 342.102 59.4803 342.133 59.6012C342.156 59.6894 342.176 59.7755 342.193 59.8636L342.195 59.8698C342.346 60.7757 342.369 61.6985 342.262 62.6108Z" fill="#FBBEBE"/>
<path d="M327.875 41.4126C334.555 41.4126 339.97 35.9971 339.97 29.3168C339.97 22.6365 334.555 17.2211 327.875 17.2211C321.194 17.2211 315.779 22.6365 315.779 29.3168C315.779 35.9971 321.194 41.4126 327.875 41.4126Z" fill="#FBBEBE"/>
<path d="M404.668 95.2202C404.318 91.9202 403.145 88.7609 401.257 86.0316C401.57 87.8972 401.885 89.7621 402.2 91.6264C401.808 91.7397 401.392 91.7362 401.002 91.6164C400.613 91.4966 400.267 91.2656 400.006 90.9519C399.497 90.3159 399.107 89.5928 398.856 88.8177C397.482 85.4063 395.685 82.1808 393.507 79.2169C385.807 78.5753 378.195 75.3832 371.423 71.6622C364.65 67.9433 358.311 63.4843 351.627 59.6075C350.469 58.9071 349.262 58.2905 348.015 57.7623C345.924 56.9238 343.576 56.4892 341.594 55.5031C341.461 55.4375 341.327 55.3678 341.196 55.296C340.748 55.0525 340.324 54.7676 339.929 54.4452C339.716 54.2719 339.513 54.0857 339.322 53.8876C338.333 52.7369 337.549 51.4249 337.004 50.0088C335.94 47.6552 335.56 44.8158 334.499 42.4622C334.987 42.0061 335.535 41.6191 336.128 41.3121H336.13C336.217 41.267 336.303 41.224 336.391 41.183C336.811 40.9851 337.248 40.8252 337.697 40.7053C337.951 40.6376 338.207 40.5823 338.466 40.5392C338.476 40.5382 338.486 40.5361 338.496 40.5331C339.694 40.3379 340.921 40.435 342.074 40.816C343.759 41.3859 345.18 42.5237 346.596 43.6001C348.898 45.2214 351.105 46.9723 353.208 48.8443C354.377 49.9636 355.443 51.1937 356.699 52.2106C357.744 53.0166 358.845 53.7463 359.994 54.394C366.794 58.445 373.595 62.4954 380.397 66.5451C382.699 67.9166 385.003 69.2882 387.254 70.7396C390.674 72.9456 393.971 75.336 397.265 77.7244C399.207 79.1308 401.147 80.5379 403.088 81.9456C403.724 82.3517 404.283 82.8683 404.738 83.4709C405.14 84.1552 405.389 84.9181 405.47 85.7076C405.957 88.8973 405.682 92.157 404.668 95.2202Z" fill="#FBBEBE"/>
<path d="M345.262 71.7073C344.446 75.3668 340.747 77.5789 338.814 80.7935C336.411 84.783 337.391 89.4204 338.293 93.9901C336.645 95.4109 334.996 96.8316 333.346 98.2523C332.436 99.0334 331.526 99.8186 330.546 100.51C329.117 101.467 327.624 102.325 326.077 103.076C324.617 103.827 323.157 104.578 321.697 105.329C320.341 106.092 318.903 106.702 317.411 107.146C314.534 107.884 311.48 107.367 308.634 106.512C308.299 106.424 307.976 106.293 307.675 106.121C307.497 106.015 307.342 105.875 307.22 105.709C306.939 105.206 306.837 104.623 306.93 104.054C307.22 99.2651 308.39 94.5765 309.557 89.9227C310.18 87.1307 311.018 84.3911 312.064 81.7283C313.089 79.4467 314.268 77.237 315.592 75.1146C317.054 72.4442 318.785 69.9306 320.759 67.6132C321.72 66.7213 322.528 65.6784 323.153 64.5257C323.881 62.8651 323.6 60.9605 323.748 59.1523C323.861 57.7938 324.221 56.4674 324.812 55.2386V55.2366C325.128 54.5747 325.508 53.9457 325.947 53.3587C326.146 53.822 326.345 54.2846 326.544 54.7466C326.675 55.05 326.805 55.3528 326.934 55.6548C327.102 56.0444 327.268 56.4325 327.434 56.8193C327.911 57.9305 328.388 59.041 328.865 60.1508C329.38 61.5486 330.113 62.8558 331.038 64.0235C331.461 64.6214 332.031 65.0995 332.694 65.411C333.357 65.7225 334.089 65.8568 334.819 65.8009C335.549 65.7449 336.252 65.5005 336.86 65.0916C337.467 64.6827 337.958 64.1232 338.285 63.4679C338.974 62.2445 339.473 60.9235 339.765 59.5501C340.17 57.8778 340.226 56.1401 339.929 54.4453C339.435 51.1815 338.047 47.848 337.039 44.8158C336.628 43.8048 336.39 42.732 336.335 41.6422C336.337 41.5198 336.35 41.3977 336.372 41.2773C336.378 41.2465 336.385 41.2137 336.391 41.183C336.811 40.9851 337.248 40.8252 337.697 40.7053C337.951 40.6377 338.207 40.5823 338.465 40.5392C339.353 45.3447 340.242 50.1502 341.133 54.9557C341.153 55.0685 341.176 55.1812 341.196 55.2961C341.323 55.9849 341.453 56.6737 341.596 57.3605C341.725 57.9838 341.865 58.605 342.02 59.2221L342.027 59.2405C342.08 59.4496 342.135 59.6567 342.193 59.8637L342.195 59.8699C342.353 60.4357 342.529 60.9975 342.728 61.551C343.933 64.8865 346.035 68.2446 345.262 71.7073Z" fill="#55A6FF"/>
<path d="M394.351 123.135C394.313 123.84 394.449 124.543 394.748 125.182C395.505 126.566 397.322 126.881 398.893 127.01C408.075 127.765 417.312 127.483 426.431 126.171C426.926 126.137 427.406 125.988 427.833 125.736C429.129 124.827 428.33 122.612 426.914 121.903C425.499 121.193 423.819 121.364 422.265 121.057C420.722 120.669 419.253 120.032 417.914 119.17C414.764 117.361 411.66 115.474 408.602 113.51C406.781 112.341 404.632 111.093 402.582 111.786C397.028 113.665 394.314 117.143 394.351 123.135Z" fill="#3F3D56"/>
<path d="M326.667 54.0701V54.0721C326.653 54.1582 326.638 54.2423 326.62 54.3263C326.597 54.4658 326.571 54.6072 326.544 54.7466C326.29 56.0484 325.978 57.3441 325.619 58.6316C324.635 62.1885 323.317 65.6881 322.009 69.1364C318.499 78.3825 314.989 87.6292 311.478 96.8767C310.592 99.2056 309.708 101.537 308.702 103.818C308.365 104.579 308.019 105.346 307.675 106.121C306.44 108.894 305.255 111.759 304.862 114.711C304.495 116.654 304.453 118.644 304.737 120.601C305.13 122.536 306.305 124.426 308.144 125.142C309.042 125.492 310.327 125.962 310.081 126.895C309.948 127.407 309.366 127.657 308.843 127.743C308.153 127.853 307.447 127.81 306.775 127.617C306.103 127.423 305.482 127.084 304.956 126.624C303.974 125.753 303.22 124.398 301.914 124.252C301.01 124.154 300.177 124.695 299.349 125.074C295.97 126.618 292.034 125.537 288.485 124.441C288.764 123.003 290.207 122.056 291.641 121.769C293.074 121.48 294.556 121.685 296.017 121.646C296.486 121.671 296.95 121.552 297.348 121.304C297.705 120.976 297.955 120.549 298.066 120.078C299.007 117.288 299.707 114.422 300.159 111.513C300.63 108.472 300.827 105.385 301.5 102.381C302.022 100.038 302.83 97.7685 303.523 95.4683C304.863 90.7322 305.963 85.9315 306.82 81.0846C307.253 79.0708 307.563 77.0327 307.748 74.9813C307.865 73.2797 307.81 71.5699 307.974 69.8745C308.249 67.6687 308.709 65.4899 309.349 63.3612C309.977 61.0384 310.603 58.717 311.229 56.3969C312.158 52.963 313.155 49.3958 315.508 46.7265C316.326 45.7868 317.327 45.025 318.451 44.4882C319.575 43.9515 320.797 43.6513 322.042 43.6062C322.509 43.6056 322.974 43.6558 323.43 43.7559C323.506 43.7743 323.581 43.7928 323.657 43.8132C324.154 43.9431 324.631 44.1404 325.074 44.3996C325.8 43.9383 326.169 44.1003 326.651 44.8117C327.073 45.5646 327.272 46.4222 327.225 47.2841C327.265 49.559 327.078 51.8323 326.667 54.0701Z" fill="#FBBEBE"/>
<path d="M327.465 56.7885L327.434 56.8193L327.268 56.9853L325.619 58.6316L324.812 55.2386L322.042 43.6062C322.509 43.6056 322.974 43.6558 323.43 43.7558C323.45 43.6226 323.482 43.4915 323.526 43.3643L323.657 43.8132L324.596 47.0073L326.374 53.0716L326.667 54.07V54.0721L327.465 56.7885Z" fill="#55A6FF"/>
<path d="M337.924 19.6781C337.923 20.7552 337.709 21.8215 337.295 22.816C336.882 23.8105 336.276 24.7137 335.513 25.474C335.237 25.7507 334.941 26.0069 334.627 26.2404C333.212 27.3069 331.489 27.8842 329.717 27.885H319.882C317.708 27.8816 315.625 27.0159 314.09 25.4779C312.554 23.94 311.691 21.8554 311.691 19.6821C311.691 17.5087 312.554 15.4242 314.09 13.8862C315.625 12.3483 317.708 11.4825 319.882 11.4792H329.717C331.891 11.4848 333.974 12.3502 335.511 13.8864C337.049 15.4225 337.916 17.5046 337.924 19.6781Z" fill="#2F2E41"/>
<path d="M347.146 20.2963C351.788 20.2963 355.551 16.533 355.551 11.8908C355.551 7.24851 351.788 3.48523 347.146 3.48523C342.504 3.48523 338.74 7.24851 338.74 11.8908C338.74 16.533 342.504 20.2963 347.146 20.2963Z" fill="#2F2E41"/>
<path opacity="0.1" d="M346.941 3.48523C346.837 3.48523 346.735 3.48932 346.633 3.493C348.807 3.57205 350.866 4.49142 352.377 6.05766C353.887 7.62391 354.731 9.71492 354.731 11.8908C354.731 14.0666 353.887 16.1576 352.377 17.7238C350.866 19.2901 348.807 20.2094 346.633 20.2885C346.735 20.2922 346.837 20.2963 346.941 20.2963C349.17 20.2963 351.308 19.4107 352.884 17.8343C354.461 16.258 355.346 14.12 355.346 11.8908C355.346 9.66147 354.461 7.52349 352.884 5.94715C351.308 4.37081 349.17 3.48523 346.941 3.48523Z" fill="black"/>
<path opacity="0.1" d="M306.963 3.48523C307.066 3.48523 307.168 3.48932 307.271 3.493C305.096 3.57205 303.037 4.49142 301.527 6.05766C300.017 7.62391 299.173 9.71492 299.173 11.8908C299.173 14.0666 300.017 16.1576 301.527 17.7238C303.037 19.2901 305.096 20.2094 307.271 20.2885C307.168 20.2922 307.066 20.2963 306.963 20.2963C304.735 20.2943 302.599 19.4079 301.024 17.8317C299.45 16.2556 298.565 14.1188 298.565 11.8908C298.565 9.66275 299.45 7.5259 301.024 5.94977C302.599 4.37364 304.735 3.48719 306.963 3.48523Z" fill="black"/>
<path opacity="0.1" d="M334.627 26.2404C333.212 27.3068 331.489 27.8841 329.717 27.8849H319.882C318.11 27.8841 316.387 27.3069 314.972 26.2404H334.627Z" fill="black"/>
<path d="M398.141 87.1461C398.141 87.1461 400.26 93.252 402.2 91.6263L400.654 83.6451L398.141 87.1461Z" fill="#FBBEBE"/>
<path d="M656.003 273.35C657.977 274.067 660.09 274.317 662.177 274.078C664.263 273.839 666.266 273.119 668.027 271.975C669.787 270.83 671.258 269.293 672.323 267.483C673.388 265.673 674.018 263.64 674.164 261.545C674.309 259.45 673.966 257.35 673.161 255.41C672.357 253.47 671.113 251.744 669.527 250.367C667.941 248.99 666.057 248 664.024 247.476C661.991 246.951 659.863 246.906 657.809 247.344L658.148 254.323L654.846 248.342C651.606 249.864 649.102 252.612 647.886 255.979C647.454 257.159 647.191 258.394 647.106 259.647C646.897 262.588 647.653 265.517 649.259 267.989C650.864 270.462 653.232 272.344 656.003 273.35Z" fill="#57B894"/>
<path d="M672.342 354.298C671.176 348.363 676.227 343.1 681.216 339.68C686.205 336.26 692.035 332.899 693.737 327.095C696.184 318.752 688.896 311.113 683.224 304.524C679.016 299.635 675.403 294.264 672.459 288.524C671.279 286.223 670.194 283.817 669.884 281.249C669.437 277.552 670.625 273.872 671.821 270.345C675.808 258.595 680.071 246.943 684.61 235.39" stroke="#3F3D56" stroke-miterlimit="10"/>
<path d="M656.562 271.553C658.535 272.27 660.649 272.52 662.735 272.281C664.822 272.042 666.824 271.322 668.585 270.178C670.346 269.033 671.816 267.496 672.881 265.686C673.946 263.876 674.577 261.843 674.722 259.748C674.867 257.653 674.524 255.553 673.72 253.613C672.915 251.673 671.671 249.947 670.085 248.57C668.5 247.193 666.616 246.203 664.582 245.679C662.549 245.154 660.421 245.109 658.367 245.547L658.707 252.526L655.405 246.545C652.164 248.068 649.66 250.815 648.444 254.182C648.012 255.362 647.749 256.597 647.664 257.85C647.456 260.791 648.211 263.72 649.817 266.192C651.423 268.665 653.79 270.547 656.562 271.553V271.553Z" stroke="#3F3D56" stroke-miterlimit="10"/>
<path d="M670.685 232.98C671.459 230.843 672.759 228.935 674.465 227.432C676.17 225.93 678.227 224.88 680.445 224.381L681.561 231.016L683.631 224.048C686.505 224.09 689.291 225.045 691.587 226.774C693.883 228.504 695.57 230.918 696.404 233.668C697.239 236.419 697.178 239.363 696.229 242.077C695.281 244.79 693.495 247.132 691.13 248.765C688.764 250.397 685.94 251.235 683.067 251.158C680.194 251.081 677.419 250.093 675.144 248.337C672.869 246.58 671.211 244.146 670.409 241.386C669.608 238.625 669.704 235.682 670.685 232.98H670.685Z" fill="#57B894"/>
<path d="M671.429 230.584C672.204 228.447 673.504 226.539 675.209 225.036C676.915 223.534 678.972 222.484 681.189 221.985L682.306 228.62L684.376 221.652C687.25 221.694 690.036 222.649 692.332 224.379C694.628 226.108 696.315 228.522 697.149 231.273C697.983 234.023 697.922 236.968 696.974 239.681C696.026 242.394 694.24 244.736 691.874 246.369C689.508 248.001 686.685 248.839 683.812 248.762C680.938 248.685 678.164 247.697 675.889 245.941C673.614 244.184 671.956 241.75 671.154 238.99C670.353 236.23 670.449 233.286 671.429 230.584H671.429Z" stroke="#3F3D56" stroke-miterlimit="10"/>
<path d="M680.844 304.659C683.974 305.794 687.413 305.738 690.504 304.501C693.595 303.265 696.124 300.933 697.607 297.952C699.09 294.971 699.424 291.549 698.546 288.337C697.668 285.125 695.638 282.349 692.845 280.537L691.254 285.893L690.126 279.179C690.115 279.174 690.104 279.17 690.092 279.166C688.418 278.558 686.64 278.285 684.861 278.364C683.081 278.443 681.334 278.871 679.721 279.625C678.107 280.38 676.657 281.444 675.455 282.759C674.253 284.073 673.322 285.611 672.714 287.286C672.107 288.96 671.835 290.738 671.915 292.518C671.995 294.297 672.425 296.044 673.18 297.657C673.935 299.27 675 300.719 676.315 301.92C677.63 303.122 679.169 304.052 680.844 304.659H680.844Z" fill="#57B894"/>
<path d="M681.489 302.232C684.619 303.367 688.058 303.311 691.149 302.075C694.24 300.838 696.769 298.507 698.252 295.526C699.735 292.545 700.069 289.122 699.191 285.91C698.313 282.699 696.283 279.922 693.49 278.111L691.899 283.466L690.771 276.753C690.76 276.747 690.749 276.743 690.737 276.739C689.063 276.131 687.285 275.858 685.506 275.937C683.726 276.016 681.979 276.445 680.366 277.199C678.752 277.953 677.302 279.017 676.1 280.332C674.898 281.646 673.967 283.185 673.359 284.859C672.752 286.534 672.48 288.312 672.56 290.091C672.64 291.87 673.07 293.617 673.825 295.23C674.58 296.844 675.645 298.292 676.96 299.494C678.275 300.695 679.814 301.626 681.489 302.232H681.489Z" stroke="#3F3D56" stroke-miterlimit="10"/>
<path d="M666.727 327.178C667.266 330.24 668.84 333.024 671.188 335.063C673.535 337.102 676.512 338.272 679.619 338.377C682.727 338.481 685.776 337.514 688.255 335.638C690.734 333.761 692.493 331.089 693.236 328.07C693.979 325.051 693.661 321.868 692.336 319.056C691.011 316.243 688.759 313.971 685.957 312.622C683.156 311.272 679.976 310.927 676.951 311.644C673.925 312.361 671.238 314.096 669.34 316.559L675.382 325.652L667.127 320.826C666.487 322.881 666.35 325.059 666.727 327.178Z" fill="#57B894"/>
<path d="M667.286 325.381C667.824 328.443 669.399 331.227 671.746 333.266C674.093 335.305 677.07 336.475 680.178 336.58C683.285 336.685 686.334 335.717 688.814 333.841C691.293 331.964 693.051 329.293 693.794 326.273C694.537 323.254 694.219 320.071 692.894 317.259C691.569 314.446 689.317 312.174 686.516 310.825C683.715 309.476 680.535 309.13 677.509 309.847C674.484 310.564 671.797 312.3 669.899 314.762L675.94 323.856L667.686 319.029C667.045 321.084 666.908 323.262 667.286 325.381V325.381Z" stroke="#3F3D56" stroke-miterlimit="10"/>
<path d="M5.86865 306.382C7.16539 306.853 8.5539 307.017 9.92474 306.86C11.2956 306.704 12.6113 306.231 13.7681 305.479C14.925 304.727 15.8914 303.716 16.5911 302.527C17.2908 301.338 17.7048 300.002 17.8004 298.626C17.896 297.249 17.6705 295.87 17.1419 294.595C16.6132 293.321 15.7957 292.186 14.7539 291.282C13.7121 290.377 12.4744 289.727 11.1384 289.382C9.80236 289.037 8.40454 289.008 7.05509 289.295L7.27809 293.881L5.10857 289.951C2.97932 290.952 1.33438 292.756 0.53524 294.969C0.251432 295.744 0.0788973 296.556 0.0227841 297.379C-0.114157 299.311 0.382446 301.235 1.43734 302.86C2.49223 304.484 4.04791 305.721 5.86865 306.382Z" fill="#57B894"/>
<path d="M16.6034 359.566C15.8376 355.667 19.1561 352.209 22.4341 349.962C25.712 347.715 29.5421 345.507 30.6606 341.693C32.268 336.212 27.48 331.193 23.7534 326.864C20.9886 323.652 18.6143 320.123 16.6802 316.352C15.8393 314.871 15.2666 313.252 14.9884 311.572C14.6945 309.142 15.4751 306.725 16.2614 304.407C18.881 296.688 21.6817 289.032 24.6637 281.442" stroke="#3F3D56" stroke-miterlimit="10"/>
<path d="M6.2356 305.201C7.53234 305.673 8.92085 305.836 10.2917 305.68C11.6625 305.523 12.9782 305.05 14.1351 304.298C15.2919 303.546 16.2583 302.536 16.958 301.346C17.6578 300.157 18.0717 298.822 18.1673 297.445C18.2629 296.069 18.0375 294.689 17.5088 293.415C16.9801 292.14 16.1627 291.006 15.1209 290.101C14.079 289.197 12.8413 288.546 11.5053 288.202C10.1693 287.857 8.77149 287.827 7.42204 288.115L7.64504 292.7L5.47552 288.771C3.34626 289.771 1.70132 291.576 0.902184 293.789C0.618379 294.564 0.445847 295.375 0.38973 296.199C0.25278 298.131 0.74938 300.055 1.80427 301.679C2.85917 303.304 4.41485 304.54 6.2356 305.201V305.201Z" stroke="#3F3D56" stroke-miterlimit="10"/>
<path d="M15.5144 279.858C16.0233 278.454 16.8775 277.2 17.9981 276.213C19.1187 275.226 20.4698 274.537 21.9269 274.209L22.6604 278.568L24.0204 273.99C25.9087 274.018 27.7392 274.645 29.2476 275.781C30.7561 276.917 31.8645 278.503 32.4127 280.31C32.961 282.118 32.9207 284.052 32.2978 285.835C31.6749 287.618 30.5015 289.156 28.9471 290.229C27.3927 291.301 25.5377 291.852 23.6499 291.801C21.7621 291.751 19.9393 291.102 18.4445 289.948C16.9497 288.794 15.8603 287.194 15.3336 285.381C14.807 283.567 14.8703 281.633 15.5144 279.858Z" fill="#57B894"/>
<path d="M16.0037 278.284C16.5126 276.88 17.3667 275.626 18.4873 274.639C19.608 273.652 20.9591 272.962 22.4161 272.635L23.1497 276.994L24.5097 272.415C26.3979 272.443 28.2284 273.071 29.7369 274.207C31.2453 275.343 32.3537 276.929 32.902 278.736C33.4502 280.543 33.41 282.478 32.7871 284.261C32.1641 286.044 30.9908 287.582 29.4364 288.655C27.882 289.727 26.027 290.278 24.1392 290.227C22.2514 290.177 20.4285 289.528 18.9337 288.374C17.4389 287.22 16.3495 285.62 15.8229 283.807C15.2962 281.993 15.3596 280.059 16.0037 278.284V278.284Z" stroke="#3F3D56" stroke-miterlimit="10"/>
<path d="M22.1896 326.952C24.2461 327.698 26.5052 327.662 28.5363 326.849C30.5674 326.036 32.2284 324.505 33.2029 322.546C34.1773 320.588 34.3969 318.339 33.8199 316.229C33.243 314.119 31.9097 312.295 30.0742 311.104L29.0292 314.623L28.2882 310.212C28.2809 310.208 28.2733 310.206 28.2655 310.203C27.1655 309.803 25.9975 309.624 24.8282 309.676C23.6588 309.727 22.5111 310.009 21.4506 310.504C20.3902 311 19.4377 311.699 18.6477 312.563C17.8577 313.426 17.2456 314.437 16.8465 315.538C16.4473 316.638 16.2689 317.806 16.3215 318.975C16.374 320.145 16.6564 321.292 17.1527 322.352C17.6489 323.412 18.3491 324.364 19.2134 325.154C20.0777 325.943 21.089 326.554 22.1896 326.952Z" fill="#57B894"/>
<path d="M22.6135 325.358C24.67 326.104 26.9291 326.067 28.9602 325.255C30.9913 324.442 32.6524 322.91 33.6268 320.952C34.6012 318.993 34.8209 316.744 34.2439 314.634C33.6669 312.524 32.3336 310.7 30.4981 309.51L29.4531 313.028L28.7121 308.617C28.7048 308.614 28.6972 308.611 28.6895 308.609C27.5897 308.21 26.4221 308.031 25.2534 308.084C24.0847 308.136 22.9377 308.418 21.8779 308.914C19.7377 309.914 18.0826 311.724 17.2769 313.945C16.4712 316.167 16.5808 318.617 17.5816 320.757C18.5824 322.897 20.3925 324.552 22.6135 325.358V325.358Z" stroke="#3F3D56" stroke-miterlimit="10"/>
<path d="M12.9147 341.748C13.2683 343.76 14.303 345.589 15.8452 346.929C17.3874 348.268 19.3433 349.037 21.385 349.106C23.4267 349.174 25.4299 348.539 27.0587 347.306C28.6876 346.073 29.8429 344.318 30.3311 342.334C30.8192 340.351 30.6105 338.259 29.7398 336.411C28.8691 334.563 27.3895 333.071 25.5491 332.184C23.7087 331.298 21.6194 331.071 19.6316 331.542C17.6438 332.013 15.8784 333.153 14.6315 334.771L18.6008 340.746L13.1772 337.575C12.7567 338.925 12.6667 340.356 12.9147 341.748Z" fill="#57B894"/>
<path d="M13.2816 340.567C13.6352 342.579 14.6699 344.408 16.2121 345.748C17.7543 347.088 19.7103 347.856 21.7519 347.925C23.7936 347.994 25.7968 347.359 27.4257 346.126C29.0545 344.893 30.2099 343.137 30.698 341.154C31.1862 339.17 30.9774 337.079 30.1067 335.231C29.2361 333.383 27.7565 331.89 25.916 331.004C24.0756 330.117 21.9863 329.89 19.9985 330.361C18.0107 330.832 16.2453 331.972 14.9984 333.591L18.9678 339.565L13.5442 336.394C13.1236 337.744 13.0336 339.175 13.2816 340.567V340.567Z" stroke="#3F3D56" stroke-miterlimit="10"/>
<path d="M313.351 222.247C319.469 222.247 324.427 215.83 324.427 207.914C324.427 199.997 319.469 193.58 313.351 193.58C307.234 193.58 302.275 199.997 302.275 207.914C302.275 215.83 307.234 222.247 313.351 222.247Z" fill="#2F2E41"/>
<path d="M373.618 222.573C379.735 222.573 384.694 216.156 384.694 208.24C384.694 200.323 379.735 193.906 373.618 193.906C367.501 193.906 362.542 200.323 362.542 208.24C362.542 216.156 367.501 222.573 373.618 222.573Z" fill="#2F2E41"/>
<path d="M365.148 250.589C365.148 257.065 356.105 262.317 344.951 262.317C333.796 262.317 324.753 257.065 324.753 250.589C324.753 244.979 331.536 240.288 340.598 239.142C342.041 238.951 343.495 238.858 344.951 238.862C347.389 238.854 349.821 239.116 352.202 239.643C359.773 241.331 365.148 245.598 365.148 250.589Z" fill="#2F2E41"/>
<path d="M315.957 218.99C322.075 218.99 327.033 212.572 327.033 204.656C327.033 196.74 322.075 190.322 315.957 190.322C309.84 190.322 304.881 196.74 304.881 204.656C304.881 212.572 309.84 218.99 315.957 218.99Z" stroke="#3F3D56" stroke-miterlimit="10"/>
<path d="M376.224 219.316C382.341 219.316 387.3 212.898 387.3 204.982C387.3 197.066 382.341 190.648 376.224 190.648C370.107 190.648 365.148 197.066 365.148 204.982C365.148 212.898 370.107 219.316 376.224 219.316Z" stroke="#3F3D56" stroke-miterlimit="10"/>
<path d="M347.557 259.059C358.712 259.059 367.754 253.808 367.754 247.331C367.754 240.854 358.712 235.604 347.557 235.604C336.402 235.604 327.359 240.854 327.359 247.331C327.359 253.808 336.402 259.059 347.557 259.059Z" stroke="#3F3D56" stroke-miterlimit="10"/>
<path d="M352.443 240.621C352.448 241.44 352.141 242.23 351.583 242.831C351.32 243.118 351 243.348 350.643 243.506C350.287 243.664 349.901 243.746 349.511 243.748H342.996C342.193 243.72 341.434 243.375 340.885 242.789C340.335 242.203 340.04 241.424 340.064 240.621C340.061 239.985 340.247 239.364 340.598 238.835C342.04 238.632 343.495 238.532 344.951 238.536C347.392 238.528 349.826 238.808 352.202 239.37C352.363 239.767 352.445 240.192 352.443 240.621Z" fill="white"/>
<path d="M315.958 204.005C317.757 204.005 319.215 202.546 319.215 200.747C319.215 198.948 317.757 197.489 315.958 197.489C314.158 197.489 312.7 198.948 312.7 200.747C312.7 202.546 314.158 204.005 315.958 204.005Z" fill="white"/>
<path d="M376.55 204.005C378.349 204.005 379.808 202.546 379.808 200.747C379.808 198.948 378.349 197.489 376.55 197.489C374.751 197.489 373.292 198.948 373.292 200.747C373.292 202.546 374.751 204.005 376.55 204.005Z" fill="white"/>
<path opacity="0.3" d="M379.807 234.627C381.607 234.627 383.065 233.168 383.065 231.369C383.065 229.57 381.607 228.111 379.807 228.111C378.008 228.111 376.55 229.57 376.55 231.369C376.55 233.168 378.008 234.627 379.807 234.627Z" fill="#55A6FF"/>
<path opacity="0.3" d="M300.321 234.627C302.12 234.627 303.578 233.168 303.578 231.369C303.578 229.57 302.12 228.111 300.321 228.111C298.521 228.111 297.063 229.57 297.063 231.369C297.063 233.168 298.521 234.627 300.321 234.627Z" fill="#55A6FF"/>
</g>
<defs>
<clipPath id="clip0_23_16">
<rect width="700" height="380.645" fill="white"/>
</clipPath>
</defs>
</svg>
